<svg width="220" height="36" viewBox="0 0 220 36" fill="none" xmlns="http://www.w3.org/2000/svg">
<path d="M199.19 23.517C199.37 23.327 199.61 22.997 199.89 23.057C203.04 26.237 207.98 31.607 211.68 35.657H219.61C217.75 33.537 214.76 30.037 214.43 29.637C211.37 25.917 208.41 22.087 205.19 18.487C205.07 18.307 205.04 18.107 205.06 17.897C205.09 17.627 207.32 14.787 207.72 14.297C210.87 10.327 214.25 5.107 217.3 0.927002H210.37C207.63 4.007 205.11 7.307 202.44 10.457C200.87 12.307 197.74 16.487 197.17 16.337V0.927002H190.45V33.127C190.84 33.207 196.42 26.497 199.2 23.527L199.19 23.517Z" fill="#1A1A1A"/>
<path d="M175.03 28.267C167.93 25.587 166.61 15.957 170.91 10.357C172.07 8.84696 175.48 6.73696 177.37 6.73696H182.05C181.97 6.93696 181.92 12.817 181.9 15.147H188.93C188.9 10.887 188.63 1.04696 188.77 0.256958H177.38C175.63 0.256958 171.61 1.55696 169.99 2.45696C158.28 8.95696 158.72 29.117 171.57 34.117C175.27 35.037 179.06 35.507 182.87 35.507H188.77L188.9 30.087C185.9 30.087 177.65 29.247 175.04 28.257L175.03 28.267Z" fill="#1A1A1A"/>
<path d="M159.9 29.517L155.62 29.527V29.517L155.88 0.296997H148.9L148.91 29.457H148.92V29.517H148.91V29.527L148.89 29.517H145.07V35.517H159.94L159.9 29.517Z" fill="#1A1A1A"/>
<path d="M135.74 14.037C135.52 14.197 134.09 14.887 133.95 14.887C133.95 14.887 123.44 15.137 120.61 15.147H119.92L120.16 35.427H126.86L126.63 21.607C127.82 21.627 129.93 20.837 130.82 21.857L136.93 35.477H144.13L137.43 20.517L137.45 20.177C138.14 19.917 139.06 19.577 139.67 19.207C139.81 19.117 140.83 18.317 141.04 18.127C144 15.557 144.44 11.757 143.89 8.06699C142.42 -1.86301 119.9 0.096993 119.93 0.266993V6.50699H133.24C133.84 6.50699 135.5 7.35699 136 7.81699C137.68 9.36699 137.63 12.657 135.74 14.047V14.037Z" fill="#1A1A1A"/>
<path d="M114.6 29.317C114.6 29.317 114.56 29.277 114.53 29.277H104.34V21.127L118.78 21.097L118.73 14.897H104.34V6.73701H114.29L114.33 0.187012L97.62 0.267012V35.527H114.6V29.327V29.317Z" fill="#1A1A1A"/>
<path d="M95.58 6.49697H90.06C89.84 6.49697 84.31 19.207 84.31 19.207L76.99 0.836975H70.09C70.99 2.72698 72.1 4.95697 72.25 5.36697C75.81 14.687 84.02 35.087 84.38 35.267C84.74 35.447 88.99 24.337 90.71 19.867C92.33 15.637 95.74 6.50698 95.57 6.50698L95.58 6.49697Z" fill="#1A1A1A"/>
<path d="M41.01 35.517L54.53 0.266968C54.53 0.266968 62.11 17.667 65.6 26.397C66.8 29.397 68.89 35.087 69.08 35.517H62.24C61.87 34.967 55.9 18.387 55.22 17.117C55.08 16.847 54.94 16.517 54.57 16.567C54.57 16.567 47.67 35.517 47.61 35.517H41.01Z" fill="#1A1A1A"/>
<path d="M32.49 0.256958L19.78 25.927L6.96 0.266958H0V35.527H6.36C6.43 35.527 6.72 16.097 6.72 16.097L16.88 34.147H22.35C23.58 32.257 32.03 16.577 32.03 16.577C32.7 16.217 32.26 23.907 32.39 26.887H38.87V0.266958H32.51L32.49 0.256958Z" fill="#1A1A1A"/>
</svg>
