<svg width="220" height="36" viewBox="0 0 220 36" fill="none" xmlns="http://www.w3.org/2000/svg">
<path d="M196.67 1.427V16.7229L197.043 16.8206C197.236 16.8714 197.406 16.8163 197.499 16.7776C197.603 16.734 197.702 16.6716 197.789 16.6086C197.965 16.4816 198.162 16.3011 198.367 16.095C198.781 15.6789 199.288 15.0976 199.814 14.467C200.343 13.8343 200.901 13.1391 201.424 12.4905C201.686 12.1649 201.938 11.8517 202.174 11.5627L202.821 10.7805C205.472 7.65358 207.914 4.45965 210.597 1.427H216.325C213.409 5.48666 210.283 10.2611 207.333 13.9807C207.128 14.2315 206.467 15.0691 205.853 15.8772C205.547 16.2811 205.248 16.682 205.023 17.0012C204.911 17.1601 204.813 17.3052 204.741 17.4221C204.705 17.4799 204.672 17.5382 204.644 17.592C204.628 17.6245 204.576 17.7251 204.563 17.842L204.562 17.8499C204.535 18.1391 204.574 18.4627 204.774 18.7639L204.794 18.7942L204.817 18.8206C208.028 22.4105 210.971 26.2185 214.044 29.9543L214.045 29.9553C214.34 30.3129 216.685 33.0575 218.513 35.1575H211.901C208.22 31.1288 203.361 25.8515 200.245 22.7053L200.14 22.5989L199.995 22.5676L199.859 22.55C199.552 22.5355 199.313 22.6994 199.18 22.8108C199.035 22.9331 198.877 23.1206 198.827 23.1731L198.492 23.5266L198.506 23.5403C197.121 25.0441 195.203 27.2632 193.554 29.1409C192.658 30.1604 191.841 31.0787 191.225 31.7366C191.128 31.8404 191.035 31.9357 190.95 32.0247V1.427H196.67Z" stroke="#1A1A1A"/>
<path d="M177.38 0.756958H188.241C188.239 0.815907 188.236 0.877355 188.235 0.940552C188.229 1.29906 188.229 1.76915 188.232 2.32043C188.238 3.42378 188.259 4.86359 188.286 6.4093C188.336 9.27126 188.403 12.4958 188.425 14.6466H182.405C182.415 13.4497 182.431 11.6997 182.453 10.1505C182.465 9.25813 182.48 8.43396 182.496 7.82141C182.504 7.51484 182.512 7.2638 182.521 7.08508C182.526 6.99513 182.53 6.92724 182.534 6.88196C182.534 6.87807 182.535 6.87449 182.535 6.87122L182.789 6.23743H177.37C176.286 6.23748 174.863 6.8232 173.615 7.54797C172.355 8.27943 171.15 9.22347 170.513 10.0519V10.0529C168.268 12.9779 167.5 16.9348 168.205 20.504C168.911 24.0807 171.111 27.3218 174.853 28.7345L175.155 28.8488L175.171 28.8322C176.622 29.308 179.202 29.7298 181.763 30.0392C184.25 30.3394 186.787 30.5398 188.387 30.5782L188.282 35.007H182.87C179.114 35.0069 175.378 34.5448 171.729 33.6407C165.551 31.225 162.317 25.156 162.07 18.8302C161.823 12.4928 164.582 6.03078 170.233 2.89368C170.999 2.46854 172.37 1.93057 173.783 1.49719C175.206 1.06072 176.586 0.757055 177.38 0.756958Z" stroke="#1A1A1A"/>
<path d="M155.12 30.0284L155.621 30.0275L159.403 30.0177L159.437 35.0167H145.57V30.0167H148.772L149.41 30.3361V30.0167H149.42V28.9572H149.41L149.4 0.796997H155.375L155.12 29.5128V30.0284Z" stroke="#1A1A1A"/>
<path d="M123.467 0.517578C125.581 0.465488 128.412 0.515013 131.285 0.875977C134.165 1.23782 137.049 1.90816 139.29 3.07812C141.385 4.17204 142.865 5.67073 143.318 7.72266L143.396 8.14062C143.935 11.7622 143.481 15.3445 140.712 17.749L140.704 17.7559C140.615 17.8368 140.323 18.0728 140.02 18.3115C139.872 18.4279 139.727 18.5411 139.61 18.6299C139.552 18.6743 139.502 18.7115 139.463 18.7402C139.444 18.7546 139.428 18.7668 139.416 18.7754C139.414 18.7769 139.412 18.7781 139.41 18.7793C138.849 19.1195 137.982 19.4421 137.273 19.709L136.97 19.8232L136.951 20.1475L136.931 20.4873L136.924 20.6094L136.974 20.7217L143.358 34.9766H137.253L131.276 21.6523L131.246 21.584L131.196 21.5283L131.075 21.4023C130.45 20.8121 129.532 20.7952 128.795 20.8584C128.382 20.8938 127.957 20.9629 127.589 21.0166C127.206 21.0724 126.89 21.1116 126.639 21.1074L126.121 21.0986L126.13 21.6152L126.352 34.9268H120.654L120.426 15.6475H120.611C122.032 15.6424 125.372 15.5764 128.352 15.5127C129.843 15.4808 131.246 15.4494 132.275 15.4258C132.79 15.414 133.212 15.4043 133.505 15.3975C133.651 15.394 133.765 15.3915 133.843 15.3896C133.882 15.3887 133.912 15.3882 133.932 15.3877C133.942 15.3875 133.949 15.3868 133.954 15.3867H133.962C133.962 15.3865 133.961 15.386 133.961 15.3848C134.039 15.3831 134.105 15.3659 134.125 15.3604C134.16 15.3506 134.196 15.3389 134.229 15.3271C134.294 15.3034 134.372 15.2715 134.454 15.2363C134.62 15.1654 134.826 15.0706 135.03 14.9727C135.101 14.939 135.171 14.9024 135.24 14.8682V15.0352L136.036 14.4502C137.134 13.643 137.666 12.3109 137.708 11.0078C137.748 9.78735 137.362 8.51314 136.515 7.62207L136.339 7.44922C136.033 7.168 135.438 6.81438 134.877 6.54004C134.589 6.39907 134.291 6.26985 134.02 6.1748C133.764 6.08509 133.48 6.0069 133.24 6.00684H120.43V0.691406C120.565 0.676754 120.733 0.660788 120.932 0.644531C121.537 0.594899 122.411 0.543607 123.467 0.517578Z" stroke="#1A1A1A"/>
<path d="M113.793 6.23682H103.84V15.397H118.234L118.275 20.5981L104.339 20.6274L103.84 20.6284V29.7769H114.1V35.0269H98.12V0.76416L113.826 0.688965L113.793 6.23682Z" stroke="#1A1A1A"/>
<path d="M76.6505 1.33698L83.8458 19.3917L84.2902 20.5069L84.7687 19.4063L84.7697 19.4044L84.7843 19.3702C84.7948 19.3462 84.8099 19.3102 84.8302 19.2637C84.8707 19.1707 84.9302 19.0341 85.006 18.8604C85.1575 18.5131 85.3751 18.0173 85.6359 17.4219C86.1576 16.2308 86.8551 14.6425 87.5597 13.0547C88.2644 11.4666 88.9748 9.88058 89.5226 8.69244C89.7968 8.09768 90.0283 7.60574 90.1974 7.26471C90.2506 7.1574 90.2991 7.06913 90.337 6.99713H94.3722L94.3624 7.0069H94.9181C94.8448 7.23047 94.7511 7.5096 94.6378 7.83502C94.3182 8.75282 93.8585 10.023 93.3419 11.4278C92.3091 14.2366 91.0525 17.5745 90.2433 19.6876C89.3828 21.9238 87.8915 25.815 86.5704 29.1251C85.9097 30.7807 85.2938 32.2862 84.8214 33.3643C84.6716 33.7063 84.535 34.0006 84.42 34.2422C84.4005 34.1991 84.3784 34.1551 84.3575 34.1085C84.0941 33.5206 83.7316 32.6765 83.2941 31.6358C82.4194 29.5555 81.2495 26.6995 79.9786 23.5567C77.4368 17.2708 74.4953 9.84431 72.7169 5.18854C72.6271 4.94687 72.2981 4.25943 71.9015 3.43951C71.5937 2.80319 71.2359 2.06443 70.8859 1.33698H76.6505Z" stroke="#1A1A1A"/>
<path d="M55.3098 3.32068C56.0748 5.08792 57.1318 7.53534 58.2971 10.2552C60.6284 15.6966 63.3936 22.2238 65.136 26.5824C65.7338 28.0768 66.5547 30.2451 67.2512 32.097C67.6959 33.2795 68.0951 34.346 68.3499 35.017H62.5598C62.4992 34.8727 62.42 34.6783 62.3254 34.4379C62.1268 33.9329 61.8619 33.2376 61.551 32.4125C60.9292 30.7623 60.1268 28.5994 59.3147 26.4125C58.503 24.2267 57.6806 22.0162 57.0188 20.2728C56.688 19.4013 56.3967 18.6444 56.1663 18.0648C55.9434 17.5044 55.7652 17.0793 55.6633 16.8871H55.6643C55.6123 16.7867 55.5066 16.5585 55.3538 16.3881C55.1671 16.1801 54.8831 16.0203 54.5032 16.0717L54.2034 16.1117L54.0999 16.3969C54.0996 16.3974 54.0993 16.3987 54.0989 16.3998C54.098 16.4021 54.0965 16.4053 54.095 16.4095C54.0917 16.4187 54.0868 16.4326 54.0803 16.4506C54.0673 16.4864 54.0479 16.5396 54.0227 16.6088C53.9722 16.7475 53.8983 16.9513 53.804 17.2103C53.6152 17.7285 53.3446 18.4687 53.0208 19.3568C52.373 21.1333 51.5089 23.5021 50.6428 25.8705C49.7766 28.2391 48.9092 30.6074 48.2542 32.3832C47.9266 33.2711 47.6522 34.0099 47.4583 34.5267C47.3839 34.725 47.3205 34.8896 47.2717 35.017H41.7375L54.5579 1.58826C54.7567 2.04637 55.0116 2.63164 55.3098 3.32068Z" stroke="#1A1A1A"/>
<path d="M6.65039 0.766724L19.333 26.1505L19.7822 27.0499L20.2285 26.1486L32.7959 0.766724H38.3701V26.3868H32.876C32.8418 24.8647 32.903 22.5282 32.9121 20.4816C32.9171 19.3569 32.9063 18.3175 32.8496 17.5782C32.8218 17.2163 32.7803 16.8905 32.7129 16.6564C32.6826 16.5512 32.6282 16.3917 32.5146 16.2657C32.4511 16.1953 32.3461 16.111 32.1953 16.0782C32.0377 16.0441 31.8965 16.0812 31.793 16.1368L31.6611 16.2072L31.5898 16.34V16.3409L31.5879 16.3429C31.5869 16.3447 31.5858 16.3474 31.584 16.3507C31.5799 16.3582 31.5734 16.37 31.5654 16.3849C31.5495 16.4145 31.526 16.4585 31.4951 16.5157C31.433 16.631 31.3413 16.8006 31.2246 17.0167C30.9912 17.449 30.6566 18.0689 30.251 18.8185C29.4397 20.3177 28.3447 22.3367 27.2119 24.4142C25.088 28.3093 22.8461 32.3749 22.0703 33.6466H17.1719L7.15527 15.8517L6.24805 14.2384L6.21973 16.09V16.1036C6.21959 16.113 6.21902 16.1273 6.21875 16.1456C6.2182 16.1824 6.21786 16.2369 6.2168 16.3077C6.21466 16.45 6.21106 16.6585 6.20703 16.924C6.19897 17.4552 6.18797 18.2144 6.17383 19.1251C6.14555 20.9466 6.10703 23.3754 6.06641 25.8038C6.02579 28.2322 5.9833 30.6601 5.94629 32.4806C5.92778 33.3908 5.91008 34.1485 5.89551 34.6779C5.89191 34.8087 5.88802 34.9255 5.88477 35.0265H0.5V0.766724H6.65039Z" stroke="#1A1A1A"/>
</svg>
