<svg width="1440" height="1086" viewBox="0 0 1440 1086" fill="none" xmlns="http://www.w3.org/2000/svg">
<g opacity="0.5" clip-path="url(#clip0_20_74)">
<rect width="1440" height="1120" transform="translate(0 -34)" fill="white"/>
<rect x="-9.5" y="-33.5" width="73" height="73" stroke="#EBEBEB"/>
<rect x="63.5" y="-33.5" width="73" height="73" stroke="#EBEBEB"/>
<rect x="136.5" y="-33.5" width="73" height="73" stroke="#EBEBEB"/>
<rect x="209.5" y="-33.5" width="73" height="73" stroke="#EBEBEB"/>
<rect x="282.5" y="-33.5" width="73" height="73" stroke="#EBEBEB"/>
<rect x="355.5" y="-33.5" width="73" height="73" stroke="#EBEBEB"/>
<rect x="428.5" y="-33.5" width="73" height="73" stroke="#EBEBEB"/>
<rect x="501.5" y="-33.5" width="73" height="73" stroke="#EBEBEB"/>
<rect x="574.5" y="-33.5" width="73" height="73" stroke="#EBEBEB"/>
<rect x="647.5" y="-33.5" width="73" height="73" stroke="#EBEBEB"/>
<rect x="720.5" y="-33.5" width="73" height="73" stroke="#EBEBEB"/>
<rect x="793.5" y="-33.5" width="73" height="73" stroke="#EBEBEB"/>
<rect x="866.5" y="-33.5" width="73" height="73" stroke="#EBEBEB"/>
<rect x="939.5" y="-33.5" width="73" height="73" stroke="#EBEBEB"/>
<rect x="1012.5" y="-33.5" width="73" height="73" stroke="#EBEBEB"/>
<rect x="1085.5" y="-33.5" width="73" height="73" stroke="#EBEBEB"/>
<rect x="1158.5" y="-33.5" width="73" height="73" stroke="#EBEBEB"/>
<rect x="1231.5" y="-33.5" width="73" height="73" stroke="#EBEBEB"/>
<rect x="1304.5" y="-33.5" width="73" height="73" stroke="#EBEBEB"/>
<rect x="1377.5" y="-33.5" width="73" height="73" stroke="#EBEBEB"/>
<rect x="-9.5" y="39.5" width="73" height="73" stroke="#EBEBEB"/>
<rect x="63.5" y="39.5" width="73" height="73" stroke="#EBEBEB"/>
<rect x="136.5" y="39.5" width="73" height="73" stroke="#EBEBEB"/>
<rect x="209.5" y="39.5" width="73" height="73" stroke="#EBEBEB"/>
<rect x="282.5" y="39.5" width="73" height="73" stroke="#EBEBEB"/>
<rect x="355.5" y="39.5" width="73" height="73" stroke="#EBEBEB"/>
<rect x="428.5" y="39.5" width="73" height="73" stroke="#EBEBEB"/>
<rect x="501.5" y="39.5" width="73" height="73" stroke="#EBEBEB"/>
<rect x="574.5" y="39.5" width="73" height="73" stroke="#EBEBEB"/>
<rect x="647.5" y="39.5" width="73" height="73" stroke="#EBEBEB"/>
<rect x="720.5" y="39.5" width="73" height="73" stroke="#EBEBEB"/>
<rect x="793.5" y="39.5" width="73" height="73" stroke="#EBEBEB"/>
<rect x="866.5" y="39.5" width="73" height="73" stroke="#EBEBEB"/>
<rect x="939.5" y="39.5" width="73" height="73" stroke="#EBEBEB"/>
<rect x="1012.5" y="39.5" width="73" height="73" stroke="#EBEBEB"/>
<rect x="1085.5" y="39.5" width="73" height="73" stroke="#EBEBEB"/>
<rect x="1158.5" y="39.5" width="73" height="73" stroke="#EBEBEB"/>
<rect x="1231.5" y="39.5" width="73" height="73" stroke="#EBEBEB"/>
<rect x="1304.5" y="39.5" width="73" height="73" stroke="#EBEBEB"/>
<rect x="1377.5" y="39.5" width="73" height="73" stroke="#EBEBEB"/>
<rect x="-9.5" y="112.5" width="73" height="73" stroke="#EBEBEB"/>
<rect x="63.5" y="112.5" width="73" height="73" stroke="#EBEBEB"/>
<rect x="136.5" y="112.5" width="73" height="73" fill="#F7F7F7" stroke="#EBEBEB"/>
<rect x="209.5" y="112.5" width="73" height="73" fill="#F7F7F7" stroke="#EBEBEB"/>
<rect x="282.5" y="112.5" width="73" height="73" fill="#F7F7F7" stroke="#EBEBEB"/>
<rect x="355.5" y="112.5" width="73" height="73" stroke="#EBEBEB"/>
<rect x="428.5" y="112.5" width="73" height="73" stroke="#EBEBEB"/>
<rect x="501.5" y="112.5" width="73" height="73" fill="#F2F2F2" stroke="#EBEBEB"/>
<rect x="574.5" y="112.5" width="73" height="73" stroke="#EBEBEB"/>
<rect x="647.5" y="112.5" width="73" height="73" fill="#F2F2F2" stroke="#EBEBEB"/>
<rect x="720.5" y="112.5" width="73" height="73" stroke="#EBEBEB"/>
<rect x="793.5" y="112.5" width="73" height="73" fill="#F2F2F2" stroke="#EBEBEB"/>
<rect x="866.5" y="112.5" width="73" height="73" stroke="#EBEBEB"/>
<rect x="939.5" y="112.5" width="73" height="73" stroke="#EBEBEB"/>
<rect x="1012.5" y="112.5" width="73" height="73" stroke="#EBEBEB"/>
<rect x="1085.5" y="112.5" width="73" height="73" stroke="#EBEBEB"/>
<rect x="1158.5" y="112.5" width="73" height="73" fill="#F7F7F7" stroke="#EBEBEB"/>
<rect x="1231.5" y="112.5" width="73" height="73" fill="#F7F7F7" stroke="#EBEBEB"/>
<rect x="1304.5" y="112.5" width="73" height="73" fill="#F7F7F7" stroke="#EBEBEB"/>
<rect x="1377.5" y="112.5" width="73" height="73" stroke="#EBEBEB"/>
<rect x="-9.5" y="185.5" width="73" height="73" stroke="#EBEBEB"/>
<rect x="63.5" y="185.5" width="73" height="73" stroke="#EBEBEB"/>
<rect x="136.5" y="185.5" width="73" height="73" fill="#F7F7F7" stroke="#EBEBEB"/>
<rect x="209.5" y="185.5" width="73" height="73" stroke="#EBEBEB"/>
<rect x="282.5" y="185.5" width="73" height="73" stroke="#EBEBEB"/>
<rect x="355.5" y="185.5" width="73" height="73" stroke="#EBEBEB"/>
<rect x="428.5" y="185.5" width="73" height="73" stroke="#EBEBEB"/>
<rect x="501.5" y="185.5" width="73" height="73" stroke="#EBEBEB"/>
<rect x="574.5" y="185.5" width="73" height="73" stroke="#EBEBEB"/>
<rect x="647.5" y="185.5" width="73" height="73" stroke="#EBEBEB"/>
<rect x="720.5" y="185.5" width="73" height="73" stroke="#EBEBEB"/>
<rect x="793.5" y="185.5" width="73" height="73" stroke="#EBEBEB"/>
<rect x="866.5" y="185.5" width="73" height="73" stroke="#EBEBEB"/>
<rect x="939.5" y="185.5" width="73" height="73" stroke="#EBEBEB"/>
<rect x="1012.5" y="185.5" width="73" height="73" stroke="#EBEBEB"/>
<rect x="1085.5" y="185.5" width="73" height="73" stroke="#EBEBEB"/>
<rect x="1158.5" y="185.5" width="73" height="73" stroke="#EBEBEB"/>
<rect x="1231.5" y="185.5" width="73" height="73" stroke="#EBEBEB"/>
<rect x="1304.5" y="185.5" width="73" height="73" fill="#F7F7F7" stroke="#EBEBEB"/>
<rect x="1377.5" y="185.5" width="73" height="73" stroke="#EBEBEB"/>
<rect x="-9.5" y="258.5" width="73" height="73" stroke="#EBEBEB"/>
<rect x="63.5" y="258.5" width="73" height="73" stroke="#EBEBEB"/>
<rect x="136.5" y="258.5" width="73" height="73" stroke="#EBEBEB"/>
<rect x="209.5" y="258.5" width="73" height="73" stroke="#EBEBEB"/>
<rect x="282.5" y="258.5" width="73" height="73" stroke="#EBEBEB"/>
<rect x="355.5" y="258.5" width="73" height="73" stroke="#EBEBEB"/>
<rect x="428.5" y="258.5" width="73" height="73" stroke="#EBEBEB"/>
<rect x="501.5" y="258.5" width="73" height="73" stroke="#EBEBEB"/>
<rect x="574.5" y="258.5" width="73" height="73" stroke="#EBEBEB"/>
<rect x="647.5" y="258.5" width="73" height="73" stroke="#EBEBEB"/>
<rect x="720.5" y="258.5" width="73" height="73" stroke="#EBEBEB"/>
<rect x="793.5" y="258.5" width="73" height="73" stroke="#EBEBEB"/>
<rect x="866.5" y="258.5" width="73" height="73" stroke="#EBEBEB"/>
<rect x="939.5" y="258.5" width="73" height="73" stroke="#EBEBEB"/>
<rect x="1012.5" y="258.5" width="73" height="73" stroke="#EBEBEB"/>
<rect x="1085.5" y="258.5" width="73" height="73" stroke="#EBEBEB"/>
<rect x="1158.5" y="258.5" width="73" height="73" stroke="#EBEBEB"/>
<rect x="1231.5" y="258.5" width="73" height="73" stroke="#EBEBEB"/>
<rect x="1304.5" y="258.5" width="73" height="73" stroke="#EBEBEB"/>
<rect x="1377.5" y="258.5" width="73" height="73" stroke="#EBEBEB"/>
<rect x="-9.5" y="331.5" width="73" height="73" stroke="#EBEBEB"/>
<rect x="63.5" y="331.5" width="73" height="73" stroke="#EBEBEB"/>
<rect x="136.5" y="331.5" width="73" height="73" stroke="#EBEBEB"/>
<rect x="209.5" y="331.5" width="73" height="73" stroke="#EBEBEB"/>
<rect x="282.5" y="331.5" width="73" height="73" stroke="#EBEBEB"/>
<rect x="355.5" y="331.5" width="73" height="73" stroke="#EBEBEB"/>
<rect x="428.5" y="331.5" width="73" height="73" stroke="#EBEBEB"/>
<rect x="501.5" y="331.5" width="73" height="73" stroke="#EBEBEB"/>
<rect x="574.5" y="331.5" width="73" height="73" stroke="#EBEBEB"/>
<rect x="647.5" y="331.5" width="73" height="73" stroke="#EBEBEB"/>
<rect x="720.5" y="331.5" width="73" height="73" stroke="#EBEBEB"/>
<rect x="793.5" y="331.5" width="73" height="73" stroke="#EBEBEB"/>
<rect x="866.5" y="331.5" width="73" height="73" stroke="#EBEBEB"/>
<rect x="939.5" y="331.5" width="73" height="73" stroke="#EBEBEB"/>
<rect x="1012.5" y="331.5" width="73" height="73" stroke="#EBEBEB"/>
<rect x="1085.5" y="331.5" width="73" height="73" stroke="#EBEBEB"/>
<rect x="1158.5" y="331.5" width="73" height="73" stroke="#EBEBEB"/>
<rect x="1231.5" y="331.5" width="73" height="73" stroke="#EBEBEB"/>
<rect x="1304.5" y="331.5" width="73" height="73" stroke="#EBEBEB"/>
<rect x="1377.5" y="331.5" width="73" height="73" stroke="#EBEBEB"/>
<rect x="-9.5" y="404.5" width="73" height="73" stroke="#EBEBEB"/>
<rect x="63.5" y="404.5" width="73" height="73" stroke="#EBEBEB"/>
<rect x="136.5" y="404.5" width="73" height="73" fill="#F7F7F7" stroke="#EBEBEB"/>
<rect x="209.5" y="404.5" width="73" height="73" stroke="#EBEBEB"/>
<rect x="282.5" y="404.5" width="73" height="73" stroke="#EBEBEB"/>
<rect x="355.5" y="404.5" width="73" height="73" stroke="#EBEBEB"/>
<rect x="428.5" y="404.5" width="73" height="73" stroke="#EBEBEB"/>
<rect x="501.5" y="404.5" width="73" height="73" stroke="#EBEBEB"/>
<rect x="574.5" y="404.5" width="73" height="73" fill="#F7F7F7" stroke="#EBEBEB"/>
<rect x="647.5" y="404.5" width="73" height="73" fill="#F7F7F7" stroke="#EBEBEB"/>
<rect x="720.5" y="404.5" width="73" height="73" stroke="#EBEBEB"/>
<rect x="793.5" y="404.5" width="73" height="73" stroke="#EBEBEB"/>
<rect x="866.5" y="404.5" width="73" height="73" stroke="#EBEBEB"/>
<rect x="939.5" y="404.5" width="73" height="73" stroke="#EBEBEB"/>
<rect x="1012.5" y="404.5" width="73" height="73" stroke="#EBEBEB"/>
<rect x="1085.5" y="404.5" width="73" height="73" stroke="#EBEBEB"/>
<rect x="1158.5" y="404.5" width="73" height="73" stroke="#EBEBEB"/>
<rect x="1231.5" y="404.5" width="73" height="73" fill="#F7F7F7" stroke="#EBEBEB"/>
<rect x="1304.5" y="404.5" width="73" height="73" stroke="#EBEBEB"/>
<rect x="1377.5" y="404.5" width="73" height="73" stroke="#EBEBEB"/>
<rect x="-9.5" y="477.5" width="73" height="73" stroke="#EBEBEB"/>
<rect x="63.5" y="477.5" width="73" height="73" stroke="#EBEBEB"/>
<rect x="136.5" y="477.5" width="73" height="73" stroke="#EBEBEB"/>
<rect x="209.5" y="477.5" width="73" height="73" stroke="#EBEBEB"/>
<rect x="282.5" y="477.5" width="73" height="73" stroke="#EBEBEB"/>
<rect x="355.5" y="477.5" width="73" height="73" stroke="#EBEBEB"/>
<rect x="428.5" y="477.5" width="73" height="73" stroke="#EBEBEB"/>
<rect x="501.5" y="477.5" width="73" height="73" stroke="#EBEBEB"/>
<rect x="574.5" y="477.5" width="73" height="73" stroke="#EBEBEB"/>
<rect x="647.5" y="477.5" width="73" height="73" stroke="#EBEBEB"/>
<rect x="720.5" y="477.5" width="73" height="73" stroke="#EBEBEB"/>
<rect x="793.5" y="477.5" width="73" height="73" stroke="#EBEBEB"/>
<rect x="866.5" y="477.5" width="73" height="73" stroke="#EBEBEB"/>
<rect x="939.5" y="477.5" width="73" height="73" stroke="#EBEBEB"/>
<rect x="1012.5" y="477.5" width="73" height="73" stroke="#EBEBEB"/>
<rect x="1085.5" y="477.5" width="73" height="73" stroke="#EBEBEB"/>
<rect x="1158.5" y="477.5" width="73" height="73" stroke="#EBEBEB"/>
<rect x="1231.5" y="477.5" width="73" height="73" stroke="#EBEBEB"/>
<rect x="1304.5" y="477.5" width="73" height="73" stroke="#EBEBEB"/>
<rect x="1377.5" y="477.5" width="73" height="73" stroke="#EBEBEB"/>
<rect x="-9.5" y="550.5" width="73" height="73" stroke="#EBEBEB"/>
<rect x="63.5" y="550.5" width="73" height="73" stroke="#EBEBEB"/>
<rect x="136.5" y="550.5" width="73" height="73" stroke="#EBEBEB"/>
<rect x="209.5" y="550.5" width="73" height="73" stroke="#EBEBEB"/>
<rect x="282.5" y="550.5" width="73" height="73" stroke="#EBEBEB"/>
<rect x="355.5" y="550.5" width="73" height="73" stroke="#EBEBEB"/>
<rect x="428.5" y="550.5" width="73" height="73" stroke="#EBEBEB"/>
<rect x="501.5" y="550.5" width="73" height="73" stroke="#EBEBEB"/>
<rect x="574.5" y="550.5" width="73" height="73" stroke="#EBEBEB"/>
<rect x="647.5" y="550.5" width="73" height="73" stroke="#EBEBEB"/>
<rect x="720.5" y="550.5" width="73" height="73" stroke="#EBEBEB"/>
<rect x="793.5" y="550.5" width="73" height="73" stroke="#EBEBEB"/>
<rect x="866.5" y="550.5" width="73" height="73" stroke="#EBEBEB"/>
<rect x="939.5" y="550.5" width="73" height="73" stroke="#EBEBEB"/>
<rect x="1012.5" y="550.5" width="73" height="73" stroke="#EBEBEB"/>
<rect x="1085.5" y="550.5" width="73" height="73" stroke="#EBEBEB"/>
<rect x="1158.5" y="550.5" width="73" height="73" stroke="#EBEBEB"/>
<rect x="1231.5" y="550.5" width="73" height="73" stroke="#EBEBEB"/>
<rect x="1304.5" y="550.5" width="73" height="73" stroke="#EBEBEB"/>
<rect x="1377.5" y="550.5" width="73" height="73" stroke="#EBEBEB"/>
<rect x="-9.5" y="623.5" width="73" height="73" stroke="#EBEBEB"/>
<rect x="63.5" y="623.5" width="73" height="73" stroke="#EBEBEB"/>
<rect x="136.5" y="623.5" width="73" height="73" fill="#F7F7F7" stroke="#EBEBEB"/>
<rect x="209.5" y="623.5" width="73" height="73" stroke="#EBEBEB"/>
<rect x="282.5" y="623.5" width="73" height="73" stroke="#EBEBEB"/>
<rect x="355.5" y="623.5" width="73" height="73" stroke="#EBEBEB"/>
<rect x="428.5" y="623.5" width="73" height="73" stroke="#EBEBEB"/>
<rect x="501.5" y="623.5" width="73" height="73" stroke="#EBEBEB"/>
<rect x="574.5" y="623.5" width="73" height="73" stroke="#EBEBEB"/>
<rect x="647.5" y="623.5" width="73" height="73" stroke="#EBEBEB"/>
<rect x="720.5" y="623.5" width="73" height="73" stroke="#EBEBEB"/>
<rect x="793.5" y="623.5" width="73" height="73" stroke="#EBEBEB"/>
<rect x="866.5" y="623.5" width="73" height="73" stroke="#EBEBEB"/>
<rect x="939.5" y="623.5" width="73" height="73" stroke="#EBEBEB"/>
<rect x="1012.5" y="623.5" width="73" height="73" stroke="#EBEBEB"/>
<rect x="1085.5" y="623.5" width="73" height="73" stroke="#EBEBEB"/>
<rect x="1158.5" y="623.5" width="73" height="73" stroke="#EBEBEB"/>
<rect x="1231.5" y="623.5" width="73" height="73" fill="#F7F7F7" stroke="#EBEBEB"/>
<rect x="1304.5" y="623.5" width="73" height="73" stroke="#EBEBEB"/>
<rect x="1377.5" y="623.5" width="73" height="73" stroke="#EBEBEB"/>
<rect x="-9.5" y="696.5" width="73" height="73" stroke="#EBEBEB"/>
<rect x="63.5" y="696.5" width="73" height="73" stroke="#EBEBEB"/>
<rect x="136.5" y="696.5" width="73" height="73" fill="#F7F7F7" stroke="#EBEBEB"/>
<rect x="209.5" y="696.5" width="73" height="73" fill="#F7F7F7" stroke="#EBEBEB"/>
<rect x="282.5" y="696.5" width="73" height="73" stroke="#EBEBEB"/>
<rect x="355.5" y="696.5" width="73" height="73" stroke="#EBEBEB"/>
<rect x="428.5" y="696.5" width="73" height="73" stroke="#EBEBEB"/>
<rect x="501.5" y="696.5" width="73" height="73" stroke="#EBEBEB"/>
<rect x="574.5" y="696.5" width="73" height="73" stroke="#EBEBEB"/>
<rect x="647.5" y="696.5" width="73" height="73" fill="#F2F2F2" stroke="#EBEBEB"/>
<rect x="720.5" y="696.5" width="73" height="73" stroke="#EBEBEB"/>
<rect x="793.5" y="696.5" width="73" height="73" fill="#F2F2F2" stroke="#EBEBEB"/>
<rect x="866.5" y="696.5" width="73" height="73" stroke="#EBEBEB"/>
<rect x="939.5" y="696.5" width="73" height="73" fill="#F2F2F2" stroke="#EBEBEB"/>
<rect x="1012.5" y="696.5" width="73" height="73" stroke="#EBEBEB"/>
<rect x="1085.5" y="696.5" width="73" height="73" stroke="#EBEBEB"/>
<rect x="1158.5" y="696.5" width="73" height="73" fill="#F7F7F7" stroke="#EBEBEB"/>
<rect x="1231.5" y="696.5" width="73" height="73" fill="#F7F7F7" stroke="#EBEBEB"/>
<rect x="1304.5" y="696.5" width="73" height="73" stroke="#EBEBEB"/>
<rect x="1377.5" y="696.5" width="73" height="73" stroke="#EBEBEB"/>
<rect x="-9.5" y="769.5" width="73" height="73" stroke="#EBEBEB"/>
<rect x="63.5" y="769.5" width="73" height="73" stroke="#EBEBEB"/>
<rect x="136.5" y="769.5" width="73" height="73" stroke="#EBEBEB"/>
<rect x="209.5" y="769.5" width="73" height="73" fill="#F7F7F7" stroke="#EBEBEB"/>
<rect x="282.5" y="769.5" width="73" height="73" stroke="#EBEBEB"/>
<rect x="355.5" y="769.5" width="73" height="73" stroke="#EBEBEB"/>
<rect x="428.5" y="769.5" width="73" height="73" stroke="#EBEBEB"/>
<rect x="501.5" y="769.5" width="73" height="73" stroke="#EBEBEB"/>
<rect x="574.5" y="769.5" width="73" height="73" stroke="#EBEBEB"/>
<rect x="647.5" y="769.5" width="73" height="73" stroke="#EBEBEB"/>
<rect x="720.5" y="769.5" width="73" height="73" stroke="#EBEBEB"/>
<rect x="793.5" y="769.5" width="73" height="73" stroke="#EBEBEB"/>
<rect x="866.5" y="769.5" width="73" height="73" stroke="#EBEBEB"/>
<rect x="939.5" y="769.5" width="73" height="73" stroke="#EBEBEB"/>
<rect x="1012.5" y="769.5" width="73" height="73" stroke="#EBEBEB"/>
<rect x="1085.5" y="769.5" width="73" height="73" stroke="#EBEBEB"/>
<rect x="1158.5" y="769.5" width="73" height="73" fill="#F7F7F7" stroke="#EBEBEB"/>
<rect x="1231.5" y="769.5" width="73" height="73" stroke="#EBEBEB"/>
<rect x="1304.5" y="769.5" width="73" height="73" stroke="#EBEBEB"/>
<rect x="1377.5" y="769.5" width="73" height="73" stroke="#EBEBEB"/>
<rect x="-9.5" y="842.5" width="73" height="73" stroke="#EBEBEB"/>
<rect x="63.5" y="842.5" width="73" height="73" stroke="#EBEBEB"/>
<rect x="136.5" y="842.5" width="73" height="73" stroke="#EBEBEB"/>
<rect x="209.5" y="842.5" width="73" height="73" stroke="#EBEBEB"/>
<rect x="282.5" y="842.5" width="73" height="73" stroke="#EBEBEB"/>
<rect x="355.5" y="842.5" width="73" height="73" stroke="#EBEBEB"/>
<rect x="428.5" y="842.5" width="73" height="73" stroke="#EBEBEB"/>
<rect x="501.5" y="842.5" width="73" height="73" stroke="#EBEBEB"/>
<rect x="574.5" y="842.5" width="73" height="73" stroke="#EBEBEB"/>
<rect x="647.5" y="842.5" width="73" height="73" stroke="#EBEBEB"/>
<rect x="720.5" y="842.5" width="73" height="73" stroke="#EBEBEB"/>
<rect x="793.5" y="842.5" width="73" height="73" stroke="#EBEBEB"/>
<rect x="866.5" y="842.5" width="73" height="73" stroke="#EBEBEB"/>
<rect x="939.5" y="842.5" width="73" height="73" stroke="#EBEBEB"/>
<rect x="1012.5" y="842.5" width="73" height="73" stroke="#EBEBEB"/>
<rect x="1085.5" y="842.5" width="73" height="73" stroke="#EBEBEB"/>
<rect x="1158.5" y="842.5" width="73" height="73" stroke="#EBEBEB"/>
<rect x="1231.5" y="842.5" width="73" height="73" stroke="#EBEBEB"/>
<rect x="1304.5" y="842.5" width="73" height="73" stroke="#EBEBEB"/>
<rect x="1377.5" y="842.5" width="73" height="73" stroke="#EBEBEB"/>
</g>
<defs>
<clipPath id="clip0_20_74">
<rect width="1440" height="1120" fill="white" transform="translate(0 -34)"/>
</clipPath>
</defs>
</svg>
